<svg width="30" height="30" viewBox="0 0 30 30" fill="none" xmlns="http://www.w3.org/2000/svg">
<path fill-rule="evenodd" clip-rule="evenodd" d="M16.7736 2.29176C16.6705 1.40365 15.9157 0.714294 14.9999 0.714294C14.0137 0.714294 13.2142 1.51379 13.2142 2.50001V13.2143H2.49995L2.2917 13.2263C1.40359 13.3295 0.714233 14.0842 0.714233 15C0.714233 15.9862 1.51372 16.7857 2.49995 16.7857H13.2142V27.5L13.2262 27.7083C13.3294 28.5964 14.0842 29.2857 14.9999 29.2857C15.9862 29.2857 16.7857 28.4862 16.7857 27.5V16.7857H27.4999L27.7082 16.7737C28.5963 16.6706 29.2857 15.9158 29.2857 15C29.2857 14.0138 28.4862 13.2143 27.4999 13.2143H16.7857V2.50001L16.7736 2.29176Z" fill="#000"/>
</svg>
