<svg width="26" height="26" viewBox="0 0 26 26" fill="none" xmlns="http://www.w3.org/2000/svg">
<path d="M5.86371 15.9551H2.51122C1.13005 15.9551 0 17.0851 0 18.4663V24.7444C0 25.4349 0.565025 26 1.25561 26H5.86371C6.5543 26 7.11932 25.4349 7.11932 24.7444V17.2107C7.11932 16.5201 6.5543 15.9551 5.86371 15.9551Z" fill="#000"/>
<path d="M14.2262 10.9326H10.8738C9.49254 10.9326 8.36249 12.0627 8.36249 13.4438V24.7444C8.36249 25.4349 8.92751 26 9.6181 26H15.4819C16.1724 26 16.7375 25.4349 16.7375 24.7444V13.4438C16.7375 12.0627 15.62 10.9326 14.2262 10.9326Z" fill="#000"/>
<path d="M22.6012 19.7219H19.2487C18.5581 19.7219 17.9931 20.2869 17.9931 20.9775V24.7444C17.9931 25.435 18.5581 26 19.2487 26H23.8568C24.5474 26 25.1124 25.435 25.1124 24.7444V22.2331C25.1124 20.852 23.9824 19.7219 22.6012 19.7219Z" fill="#000"/>
<path d="M16.3349 4.46684C16.7241 4.0776 16.8748 3.61302 16.7492 3.21123C16.6237 2.80943 16.2344 2.52064 15.682 2.43275L14.4766 2.23185C14.4263 2.23185 14.3133 2.14396 14.2882 2.09373L13.6228 0.762784C13.1205 -0.254261 11.9779 -0.254261 11.4757 0.762784L10.8102 2.09373C10.7976 2.14396 10.6846 2.23185 10.6344 2.23185L9.42895 2.43275C8.87648 2.52064 8.4998 2.80943 8.36168 3.21123C8.23612 3.61302 8.38679 4.0776 8.77603 4.46684L9.70518 5.40855C9.75541 5.44622 9.79308 5.59689 9.78052 5.64711L9.51684 6.80228C9.31594 7.66865 9.6424 8.05789 9.85586 8.20856C10.0694 8.35924 10.534 8.56013 11.2999 8.10811L12.4299 7.44264C12.4801 7.40497 12.6434 7.40497 12.6936 7.44264L13.8111 8.10811C14.1627 8.32157 14.4515 8.38435 14.6775 8.38435C14.9411 8.38435 15.1295 8.2839 15.2425 8.20856C15.4559 8.05789 15.7824 7.66865 15.5815 6.80228L15.3178 5.64711C15.3053 5.58433 15.3429 5.44622 15.3932 5.40855L16.3349 4.46684Z" fill="#000"/>
</svg>
